# xmcd
#
# Track frame offsets: 
#        150
#        11841
#        20567
#        35407
#        48127
#        58840
#        71736
#        81954
#        100617
#        116528
#        129352
#        141454
#        152427
#        164236
#        175875
#        186993
#
# Disc length: 2610 seconds
#
# Revision: 0
# Processed by: cddbd v1.5.2PL0 Copyright (c) Steve Scherf et al.
# Submitted via: ExactAudioCopy v0.99pb5
#
DISCID=de0a3010
DTITLE=Various Artist - Irish Country Queens
DYEAR=1900
DGENRE=
TTITLE0=road by the river
TTITLE1=you aint woman enough
TTITLE2=save the last dance for me
TTITLE3=a village in country tyrone
TTITLE4=once around the dance floor
TTITLE5=a trace of a heatache
TTITLE6=its a sin to tell a lie
TTITLE7=my grandfathers clock
TTITLE8=blanket on the ground
TTITLE9=crazy dreams
TTITLE10=dear john letter
TTITLE11=silver threads and golden needles
TTITLE12=my heart has a mind of its own
TTITLE13=i dont wanna play house
TTITLE14=ramblin man
TTITLE15=three cigarettes in an ashtray
EXTD=
EXTT0=
EXTT1=
EXTT2=
EXTT3=
EXTT4=
EXTT5=
EXTT6=
EXTT7=
EXTT8=
EXTT9=
EXTT10=
EXTT11=
EXTT12=
EXTT13=
EXTT14=
EXTT15=
PLAYORDER=
